<?xml version="1.0" standalone="no"?>
<!DOCTYPE svg PUBLIC "-//W3C//DTD SVG 20010904//EN"
 "http://www.w3.org/TR/2001/REC-SVG-20010904/DTD/svg10.dtd">
<svg version="1.0" xmlns="http://www.w3.org/2000/svg"
 width="700.000000pt" height="700.000000pt" viewBox="0 0 700.000000 700.000000"
 preserveAspectRatio="xMidYMid meet">
<metadata>
Created by potrace 1.11, written by Peter Selinger 2001-2013
</metadata>
<g transform="translate(0.000000,700.000000) scale(0.100000,-0.100000)"
fill="#000000" stroke="none">
<path d="M3298 6995 c-2 -1 -41 -5 -88 -9 -100 -7 -225 -22 -295 -36 -27 -5
-61 -12 -75 -14 -198 -36 -503 -126 -657 -193 -21 -9 -40 -17 -43 -18 -15 -3
-128 -56 -218 -102 -198 -101 -354 -199 -537 -336 -66 -50 -122 -94 -125 -97
-3 -4 -36 -34 -75 -67 -71 -61 -255 -246 -316 -317 -19 -22 -44 -51 -56 -64
-65 -70 -265 -354 -323 -457 -152 -270 -219 -415 -301 -652 -33 -96 -82 -266
-94 -321 -2 -9 -8 -37 -14 -62 -11 -49 -13 -63 -35 -195 -34 -204 -40 -302
-40 -570 0 -251 13 -405 48 -590 2 -11 6 -36 10 -55 49 -272 156 -595 283
-857 449 -928 1279 -1611 2270 -1868 150 -40 313 -72 408 -81 33 -3 63 -8 66
-9 29 -18 532 -26 709 -12 105 9 111 9 290 38 255 42 516 118 773 226 117 49
344 162 388 194 15 10 30 19 34 19 12 0 282 184 370 253 482 377 851 868 1090
1447 100 243 198 613 221 831 3 35 8 67 10 70 24 41 23 779 -1 818 -1 4 -6 33
-9 66 -3 33 -8 69 -10 80 -2 11 -11 61 -21 110 -137 735 -527 1424 -1096 1936
-456 411 -1019 698 -1616 823 -99 21 -244 44 -393 61 -55 7 -526 16 -532 10z
m-1296 -1715 c239 -74 395 -286 390 -528 -3 -195 -95 -355 -259 -456 -300
-183 -692 -37 -799 298 -27 86 -30 230 -7 310 55 184 206 333 386 380 75 20
220 18 289 -4z m4124 -2722 c5 -4 9 -117 9 -265 l0 -258 -2633 0 c-1447 0
-2633 2 -2633 5 -6 25 -4 507 2 515 8 11 5238 13 5255 3z"/>
</g>
</svg>
